0
SECTION
2
HEADER
9
$INSUNITS
70
4
9
$ACADVER
1
AC1014
9
$HANDSEED
5
FFFF
0
ENDSEC
0
SECTION
2
TABLES
0
TABLE
2
VPORT
5
8
100
AcDbSymbolTable
0
ENDTAB
0
TABLE
2
LTYPE
5
5
100
AcDbSymbolTable
0
LTYPE
5
14
100
AcDbSymbolTableRecord
100
AcDbLinetypeTableRecord
2
BYBLOCK
70
0
0
LTYPE
5
15
100
AcDbSymbolTableRecord
100
AcDbLinetypeTableRecord
2
BYLAYER
70
0
0
LTYPE
5
16
100
AcDbSymbolTableRecord
100
AcDbLinetypeTableRecord
2
DASHED
70
0
3
Dashed __ __ __ __ __ __ __ __ __ __ __ __ __ _
72
65
73
2
40
0.75
49
0.5
74
0
49
-0.25
74
0
0
ENDTAB
0
TABLE
2
LAYER
5
2
100
AcDbSymbolTable
70
3
0
LAYER
5
50
100
AcDbSymbolTableRecord
100
AcDbLayerTableRecord
2
1
70
0
62
7
6
DASHED
0
LAYER
5
51
100
AcDbSymbolTableRecord
100
AcDbLayerTableRecord
2
0
70
0
62
7
6
CONTINUOUS
0
ENDTAB
0
TABLE
2
STYLE
5
3
100
AcDbSymbolTable
70
1
0
STYLE
5
11
100
AcDbSymbolTableRecord
100
AcDbTextStyleTableRecord
2
STANDARD
70
0
0
ENDTAB
0
TABLE
2
VIEW
5
6
100
AcDbSymbolTable
70
0
0
ENDTAB
0
TABLE
2
UCS
5
7
100
AcDbSymbolTable
70
0
0
ENDTAB
0
TABLE
2
APPID
5
9
100
AcDbSymbolTable
70
2
0
APPID
5
12
100
AcDbSymbolTableRecord
100
AcDbRegAppTableRecord
2
ACAD
70
0
0
ENDTAB
0
TABLE
2
DIMSTYLE
5
A
100
AcDbSymbolTable
70
1
0
ENDTAB
0
TABLE
2
BLOCK_RECORD
5
1
100
AcDbSymbolTable
70
1
0
BLOCK_RECORD
5
1F
100
AcDbSymbolTableRecord
100
AcDbBlockTableRecord
2
*MODEL_SPACE
0
BLOCK_RECORD
5
1B
100
AcDbSymbolTableRecord
100
AcDbBlockTableRecord
2
*PAPER_SPACE
0
ENDTAB
0
ENDSEC
0
SECTION
2
BLOCKS
0
BLOCK
5
20
100
AcDbEntity
100
AcDbBlockBegin
2
*MODEL_SPACE
0
ENDBLK
5
21
100
AcDbEntity
100
AcDbBlockEnd
0
BLOCK
5
1C
100
AcDbEntity
100
AcDbBlockBegin
2
*PAPER_SPACE
0
ENDBLK
5
1D
100
AcDbEntity
100
AcDbBlockEnd
0
ENDSEC
0
SECTION
2
ENTITIES
0
POINT
5
100
100
AcDbEntity
8
0
100
AcDbPoint
10
4.2999999995756868
20
39.699999999919861
30
0
0
POINT
5
101
100
AcDbEntity
8
0
100
AcDbPoint
10
0.30000000000000032
20
39.699999999919861
30
0
0
POINT
5
102
100
AcDbEntity
8
0
100
AcDbPoint
10
0.29999999999999327
20
29.199999999919861
30
0
0
POINT
5
103
100
AcDbEntity
8
0
100
AcDbPoint
10
6.3000000005009191
20
39.699999999770398
30
0
0
POINT
5
104
100
AcDbEntity
8
0
100
AcDbPoint
10
5.299999999975662
20
31.700000000000003
30
0
0
POINT
5
105
100
AcDbEntity
8
0
100
AcDbPoint
10
10.300000000581129
20
40
30
0
0
LWPOLYLINE
5
106
100
AcDbEntity
8
0
100
AcDbPolyline
90
31
70
1
43
0.0
10
5.0443031813361348
20
31.843095133997696
10
2.3443031814267377
20
36.243095134020422
42
-0.5863141183324333
10
2.600000000036041
20
36.700000000000003
10
4.0499999997988967
20
36.700000000129982
42
0.41421356236623574
10
4.2999999997749354
20
36.950000000148094
10
4.2999999995974223
20
39.399999999919864
10
3.9999999995756852
20
39.699999999975645
10
0.59999999999999998
20
39.699999999919861
42
0.41421356237310247
10
0.30000000000000326
20
39.399999999919864
10
0.29999999999999361
20
29.699999999919857
10
0.79999999999999316
20
29.199999999919861
10
9.9999999997015738
20
29.199999999919854
42
0.41421356237310047
10
10.299999999701567
20
29.499999999919847
10
10.300000000000001
20
33.900000000019531
42
0.41421356237309503
10
9.9999999998759073
20
34.200000000019529
10
8.549999999711261
20
34.200000000019529
42
-0.41421356237309503
10
8.2999999997015692
20
34.45000000002922
10
8.2999999997263352
20
35.450000000019536
42
-0.41421356237309503
10
8.5499999997015674
20
35.699999999994766
10
10.000000000000007
20
35.699999999975958
42
0.4142135624156455
10
10.300000000000001
20
36.000000000019533
10
10.300000000174339
20
37.199999999994773
10
10
20
37.199999999994773
10
10
20
39.699999999994773
10
6.6000000005009198
20
39.699999999788588
10
6.2999904328171441
20
39.399999999770394
10
6.2999904328171441
20
36.950000869646388
42
0.41421458140841522
10
6.549990432801164
20
36.699999999857681
10
8.0000000000700027
20
36.699999999919669
42
-0.58631411833299218
10
8.2556968186657613
20
36.243095133932805
10
5.5556968186160187
20
31.843095133996187
42
-0.5596281364457909
0
LINE
5
107
100
AcDbEntity
8
0
100
AcDbLine
10
5.3000000001939505
20
39.490076614935589
30
0
11
5.2999999999758671
21
31.426404022124217
31
0
0
LINE
5
108
100
AcDbEntity
8
1
100
AcDbLine
10
8.3000000000199172
20
36.400000012013734
30
0
11
2.3000000000199154
21
36.400000012011702
31
0
0
LINE
5
109
100
AcDbEntity
8
0
100
AcDbLine
10
0
20
40
30
0
11
0
21
0
31
0
0
LINE
5
110
100
AcDbEntity
8
0
100
AcDbLine
10
60
20
40
30
0
11
0
21
40
31
0
0
ENDSEC
0
SECTION
2
OBJECTS
0
DICTIONARY
5
C
100
AcDbDictionary
3
ACAD_GROUP
350
D
3
ACAD_MLINESTYLE
350
17
0
DICTIONARY
5
D
100
AcDbDictionary
0
DICTIONARY
5
1A
330
C
100
AcDbDictionary
0
DICTIONARY
5
17
100
AcDbDictionary
0
ENDSEC
0
EOF
